<?xml version="1.0" encoding="utf-8"?>
<!-- Generator: Adobe Illustrator 22.1.0, SVG Export Plug-In . SVG Version: 6.00 Build 0)  -->
<svg version="1.1" xmlns="http://www.w3.org/2000/svg" xmlns:xlink="http://www.w3.org/1999/xlink" x="0px" y="0px"
	 viewBox="0 0 841.9 595.3" style="enable-background:new 0 0 841.9 595.3;" xml:space="preserve">
<style type="text/css">
	.st0{fill:#FFFFFF;}
	.st1{fill:#FCFBFA;}
	.st2{fill:#332F2B;}
	.st3{fill:#FFFCF7;}
	.st4{fill:#514D4A;}
	.st5{fill:#262424;}
	.st6{fill:#655F58;}
	.st7{fill:#A9A59A;}
	.st8{fill:#5B5653;}
	.st9{fill:#4B433D;}
	.st10{fill:#181412;}
	.st11{fill:#FFFEFD;}
</style>
<g id="Layer_1">
	<g>
		<path class="st0" d="M267.3,131.2l-5,2.4l-2.2-2.7l8.9-7.7l5.6-4.6c6.1-5,12.8-6,17.6-0.1c3.6,4.4,3.4,8.8,0.2,13.2
			c6.1-3.1,10.9-2.2,14.2,1.7c5.6,6.9,3.6,13.4-4.4,20.1l-14,11.5l-2.4-2.9l3.4-4.4L267.3,131.2z M284.8,135
			c4.4-3.6,5.9-7.8,2.7-11.7c-2.8-3.4-6.7-3.1-9.9-0.5l-5.4,4.4l8.9,10.8L284.8,135z M299.1,149.5c4.7-3.8,5.5-7.8,2.5-11.5
			c-4-4.9-8.4-3.8-13.8,0.7l-3.7,3l9.9,12L299.1,149.5z"/>
		<path class="st0" d="M328.8,130.9l1.8,3.4l-15.2,7.9l-1.8-3.4l4.2-3.6L302,104.7l-5.4,1.4L295,103l11.7-6.4l34.9,21.9l-14-27
			l-5.4,1.4l-1.6-3.1l14.5-7.9l1.8,3.4l-4.2,3.6l18.1,34.9l-7,3.7L309.1,106l13.8,26.5L328.8,130.9z"/>
		<path class="st0" d="M397.5,98.2c1.7,8.7-3.3,14.9-12.6,16.7c-10.3,2-15.7-2.4-17.1-9.9s6.2-13.2,6.2-13.2s-7.7-0.5-9.2-7.9
			c-1.5-7.7,3.5-12.3,12.3-14c5.5-1.1,12.3,0.2,12.3,0.2l1.4,8.8l-4,0.8l-2.3-4.7c0,0-2.7-0.4-7,0.4c-5,1-7,3.9-6.3,7.7
			c0.8,4.4,5.1,6.4,9.5,5.6l19.3-3.8l0.7,3.7l-4.7,2.2L397.5,98.2z M381.4,93.5c-4.7,0.9-8.1,5.1-7.1,9.8c1,5.3,4.9,7.1,10.2,6.1
			c5.3-1,7.9-4.4,6.8-9.7l-1.5-7.8L381.4,93.5z"/>
		<path class="st0" d="M427.2,70.6l-5.3-1.6l0.2-3.5l12.1,0.5l7,0.5c8.9,0.6,14,5.3,13.5,12.4c-0.4,6.1-3.5,10.1-9.1,11.8
			c1,1,2,2.7,3.4,6l4.3,10.4l4.4,1.3l-0.3,3.8l-9.5-0.7l-4.6-12.1c-2.5-6.5-3.8-7.9-8-8.2l-2.9-0.2l-1,14.3l5.3,1.6l-0.3,3.8
			l-17.4-1.2l0.3-3.8l5.5-0.9L427.2,70.6z M437.5,86.6c6.2,0.4,10-2.2,10.4-7.2c0.3-4.2-2.8-7.5-7.4-7.8l-6.7-0.5l-1.1,15.2
			L437.5,86.6z"/>
		<path class="st0" d="M484.6,74.1l6.2,1.4l3,41.8l4.8,2.6l-1,3.7l-17.7-5l1-3.7l6,0.4l-0.4-7.4l-15.9-4.4l-4.3,6.1l5.4,2.8l-1,3.7
			l-16.8-4.7l1-3.7l5.3,0.2L484.6,74.1z M485,82.4L473.5,99l12.6,3.5L485,82.4z"/>
		<path class="st0" d="M511,126.9l-1.8,3.4l-15.1-8.1l1.8-3.4l5.4,1.4L517.3,90l-4.2-3.7l1.6-3.1l11.9,6l1.8,41.2l14.3-26.8
			l-4.2-3.7l1.6-3.1l14.7,7.5l-1.8,3.4l-5.4-1.4L529.3,141l-7-3.7l-2-40.7l-14.1,26.4L511,126.9z"/>
		<path class="st0" d="M576,121.8l5,3.9l-15.1,39l3.2,4.4l-2.5,2.9l-13.9-12l2.5-2.9l5.3,3l2.8-6.9l-12.5-10.8l-6.5,3.7l3.7,4.8
			l-2.5,2.9l-13.2-11.4l2.5-2.9l4.7,2.5L576,121.8z M572.9,129.5l-17.5,10.1l9.9,8.6L572.9,129.5z"/>
	</g>
</g>
<g id="Layer_4">
	<g>
		<path class="st1" d="M233.4,367.3l1.5,3.7l-20.3,16.4l0.4,3.3l-2.2,0.8l-3.8-10.8l2.2-0.8l1.9,3.2l3.6-2.9l-3.4-9.7l-4.7,0
			l0.5,3.8l-2.2,0.8l-3.6-10.3l2.2-0.8l1.8,2.8L233.4,367.3z M229.3,370.5l-12.6,0l2.7,7.7L229.3,370.5z"/>
		<path class="st1" d="M227.8,404.6l1.2,2.5l-7,3.3l-8.3-17.3l2.1-1l2.2,2.7l19.2-9.2l-0.7-3.4l2-0.9l4.9,9.7l-2.1,1l-2.2-2.7
			l-19.2,9.2l3.5,7.3L227.8,404.6z"/>
		<path class="st1" d="M256.2,422l-3.1,0.6l-13.8,1.7l-1.9-2.5l7.4-12.2l1.8-2.3L230,418l1.4,3.6l-2,1.3l-5.8-8.9l2-1.3l2.5,2.4
			l17.9-11.7l-1.2-3.2l1.8-1.2l5,7.3l-9.3,14.6l17.2-2.3l4.7,6.8l-2,1.3l-2.5-2.4l-17.9,11.7l1.2,3.2l-2,1.3l-6-9.3l2-1.3l2.7,2.7
			L256.2,422z"/>
		<path class="st1" d="M246.2,442.7l2.8,2.1l16.4-13.6l-1.5-3.1l1.7-1.4l7.1,8.2l-1.8,1.5l-2.8-2.1L251.6,448l1.5,3.1l-1.8,1.5
			l-6.9-8.4L246.2,442.7z"/>
		<path class="st1" d="M274,441.3l-1.8-2.9l1.5-1.5l5.5,5.2l3.1,3.1c3.9,3.9,4.4,8.2,1.3,11.3c-2.7,2.7-5.8,3.3-9.1,1.8
			c0.1,0.8-0.2,2.1-0.8,4.2l-2.2,6.7l1.5,2.4l-1.7,1.7L267,469l2.8-7.5c1.5-4.1,1.4-5.3-0.4-7.1l-1.3-1.3l-6.3,6.3l1.8,2.9l-1.7,1.7
			l-7.7-7.7l1.7-1.7l2.9,1.8L274,441.3z M272.3,453c2.7,2.7,5.6,3,7.8,0.8c1.9-1.9,1.8-4.7-0.3-6.7l-2.9-2.9l-6.7,6.7L272.3,453z"/>
		<path class="st1" d="M299.3,460.4l3.2,2.3l-8.1,24.8l2.1,2.6l-1.5,1.9l-9.1-7l1.5-1.9l3.4,1.7l1.5-4.4l-8.1-6.3l-3.9,2.5l2.5,2.9
			l-1.5,1.9l-8.6-6.7l1.5-1.9l3,1.4L299.3,460.4z M297.6,465.3l-10.6,6.9l6.4,5L297.6,465.3z"/>
		<path class="st1" d="M298.9,491.6l3.3,1l10.6-18.5l-2.5-2.4l1.1-1.9l9.9,5.4l-1.2,2.1l-3.6-1.2l-4.3,7.5l11.5,6.6l4.3-7.5
			l-2.9-2.6l1.1-1.9l9.9,5.4l-1.2,2.1l-3.3-1l-10.6,18.5l2.5,2.4l-1.2,2.1l-9.8-5.6l1.2-2.1l3.6,1.2l4.7-8.2l-11.5-6.6l-4.7,8.2
			l2.9,2.6l-1.2,2.1l-9.8-5.6L298.9,491.6z"/>
		<path class="st1" d="M333.1,508.1c0,0,1.3,1.6,3.6,2.6c2.7,1.1,6.1,1,7.2-1.6c2.3-5.6-11.8-8.8-8.2-17.5c2.1-5.1,7.1-5.6,11.7-3.7
			c3.5,1.4,7.1,4.7,7.1,4.7l-2.8,6.1l-2.4-1l0.4-4.4c0,0-1.6-1.4-3.6-2.3c-3.3-1.4-5.6-0.3-6.3,1.5c-2.3,5.6,11.7,8.9,8.3,17.1
			c-2.3,5.5-7.7,6.2-12.8,4c-3.8-1.6-6.9-4.6-6.9-4.6l2.6-6.4l2.9,1.2L333.1,508.1z"/>
		<path class="st1" d="M368.5,499l-3.1-1.6l0.5-2.1l7.3,1.6l4,1c5.8,1.4,8.1,5.2,6.9,10c-1.5,6-6,8.1-12.6,6.5l-2.5-0.6l-1.7,6.9
			l3.1,1.6l-0.6,2.3l-10.6-2.6l0.6-2.3l3.5,0L368.5,499z M372.4,511.4c4.2,1,6.8-0.4,7.7-3.8c0.8-3.1-0.4-5.8-3.7-6.6l-3.8-0.9
			l-2.6,10.8L372.4,511.4z"/>
		<path class="st1" d="M390,503.9l-3.2-1.2l0.3-2.2l7.5,0.7l4.3,0.5c5.5,0.7,8.5,3.8,7.9,8.2c-0.5,3.8-2.5,6.2-6.1,7
			c0.6,0.6,1.1,1.7,1.9,3.8l2.3,6.6l2.7,1l-0.3,2.4l-5.9-0.7l-2.4-7.7c-1.3-4.2-2.1-5-4.7-5.4l-1.8-0.2l-1.1,8.8l3.2,1.2l-0.3,2.4
			l-10.8-1.4l0.3-2.4l3.4-0.4L390,503.9z M395.9,514.2c3.8,0.5,6.3-1,6.7-4.1c0.3-2.6-1.5-4.8-4.3-5.1l-4.1-0.5l-1.2,9.4
			L395.9,514.2z"/>
		<path class="st1" d="M410.7,528.3l3.4-0.7l0.7-21.3l-3.3-0.9l0.1-2.2l10.9,0.2l-0.1,2.4l-3.4,0.7l-0.7,21.3l3.3,0.9l-0.1,2.4
			l-10.9-0.4L410.7,528.3z"/>
		<path class="st1" d="M422.4,504l11-0.9l0.1,2.4l-3.5,1l7.4,18.8l5.4-19.5l-3.7-0.6l-0.1-2.2l10.6-0.8l0.1,2.4l-3,1l-7.3,25
			l-3.9,0.2l-9.9-24l-3.1-0.6L422.4,504z"/>
		<path class="st1" d="M458.3,500.6l3.9-0.9l13.1,22.6l3.4,0.1l0.4,2.3l-11.3,2.1l-0.4-2.3l3.5-1.4l-2.3-4l-10.1,1.9l-0.7,4.6
			l3.8,0.1l0.4,2.3l-10.7,2l-0.4-2.3l3.1-1.3L458.3,500.6z M460.8,505.1l-1.9,12.5l8-1.5L460.8,505.1z"/>
		<path class="st1" d="M483.4,520.7l3.6-1.9l-6.2-20.4l-4.9,1.5l0.2,4.1l-2.5,0.7l-2.1-6.8l20.6-6.2l2.1,6.8l-2.5,0.7l-2.1-3.5
			l-4.9,1.5l6.2,20.4l4-0.4l0.7,2.3L484,523L483.4,520.7z"/>
		<path class="st1" d="M512.8,495.5l1.2,2.9l-8.4,3.6l3.8,8.9l8.4-3.6l-0.8-3.9l2.4-1l2.8,6.5l-18.4,7.8l-0.9-2.2l2.8-2l-8.4-19.6
			l-3.4,0.6l-0.9-2l6.8-3.1l11.1-4.7l2.6,6.2l-2.4,1l-2.3-2.9l-7.8,3.3l3.3,7.8L512.8,495.5z"/>
		<path class="st1" d="M545.3,486.9l2.4-1.4l4,6.6l-16.3,10l-1.2-2l2.4-2.4l-11.2-18.2l-3.3,1.1l-1.1-1.9l9.2-5.9l1.2,2l-2.4,2.4
			l11.2,18.2l6.9-4.2L545.3,486.9z"/>
		<path class="st1" d="M553,488.1l2.2-2.6l-12.6-17.2l-3.2,1.4l-1.3-1.8l8.6-6.6l1.4,1.9l-2.2,2.6l12.6,17.2l3.2-1.4l1.4,1.9
			l-8.8,6.4L553,488.1z"/>
		<path class="st1" d="M569.7,447.4l1.1,3l4,13.3l-2.2,2.3l-13.2-5.2l-2.6-1.4l13.5,14.5l3.3-2l1.6,1.7l-7.8,7.3l-1.6-1.7l1.9-2.9
			l-14.5-15.6l-3,1.7l-1.5-1.6l6.4-6.2l16,6.7l-5.1-16.5l6-5.8l1.6,1.7l-1.9,2.9l14.5,15.6l3-1.7l1.6,1.7l-8.1,7.5l-1.6-1.7l2.2-3.1
			L569.7,447.4z"/>
		<path class="st1" d="M591.9,453.7l1.6-3.1l-16.2-13.9l-2.8,2l-1.7-1.4l6.9-8.4l1.8,1.5l-1.6,3.1l16.2,13.9l2.8-2l1.8,1.5l-7.1,8.3
			L591.9,453.7z"/>
		<path class="st1" d="M603.8,439.2l1.7-3.7l-17.3-12.5l-3,4.2l2.6,3.1l-1.5,2.1l-5.8-4.1l12.6-17.5l5.8,4.2l-1.5,2.1l-3.8-1.5
			l-3,4.2l17.3,12.5l2.9-2.8l1.9,1.4l-7,9.8L603.8,439.2z"/>
		<path class="st1" d="M611.9,401.3l2.8,1.6l-4.5,7.9l8.4,4.8l4.5-7.9L620,405l1.3-2.2l6.2,3.5l-9.8,17.4l-2.1-1.2l1-3.3l-18.6-10.5
			l-2.3,2.5l-1.9-1.1l3.5-6.6l5.9-10.5l5.9,3.3l-1.3,2.2l-3.6-0.9L600,405l7.4,4.2L611.9,401.3z"/>
		<path class="st1" d="M608.8,388.6l-2,2.8l-2-0.8l2.7-7l1.9-4.6c2.9-7.1,9.1-9.7,17.2-6.4c8,3.3,11.2,10.2,8.2,17.5l-4.5,11
			l-2.2-0.9l0.5-3.4L608.8,388.6z M631.8,388.7c1.9-4.6,0-9-6.9-11.8c-6.8-2.8-10.9-1.1-12.8,3.5l-1.8,4.4l19.8,8.1L631.8,388.7z"/>
	</g>
</g>
<g id="Layer_5">
	<g>
		<path d="M505.7,426.8c0.1-6.9,0.3-14.1,0.5-21.1c0.8-25.3,1.3-46.3,1.5-65.9c0.1-1.3,0.2-2.6,0.3-3.9c0.5-16.4,0.9-32.7,1.4-49.1
			l0.7-21.9c0.5-21.6,1.2-43.5,1.8-64.8c0.4-11.7,0.7-23.3,1.1-35c0-1.1,0.1-2.1,0.1-3.2c0.1-2.9,0.2-5.9,0.1-8.9l-0.1-1.7l-1.7-0.1
			c-10.3-0.4-20.7-1.3-30.8-2.1c-7.5-0.6-15.2-1.2-22.9-1.7c-1.9-0.1-3.9-0.3-5.8-0.5c-2.2-0.2-4.5-0.5-6.8-0.5c-0.5,0-0.9,0-1.4,0
			c-3-0.6-6-0.8-8.9-1c-2-0.1-4-0.3-6.1-0.5c-4.9-0.4-9.7-0.8-14.6-1.2c-4.3-0.4-8.6-0.7-12.8-1c-4.1-0.5-8.2-0.8-12.2-1.1
			c-5.6-0.4-11.4-0.9-17-1.8l-0.2,0l-4,0.1l0.1,0.8c-2,0.6-4.1,1.3-6.5,2.2l-0.6,0.2c-5.9,1.9-12,3.9-17.9,6l-1.3,0.4l0,1.3
			c0,3.5,0,7.7-0.1,11.9c-0.1,2.3,0,4.6,0.1,6.8c0.1,2.1,0.2,4.4,0.1,6.5c-0.2,4.5-0.1,9-0.1,13.4c0,4,0.1,8-0.1,12
			c-0.1,3.1-0.1,6.1-0.1,9.1c0,2,0,4,0,5.9c-0.2,5.8-0.1,11.7-0.1,17.5c0,5.9,0.1,11.9-0.1,17.9c0,2.2,0,4.5,0,6.7
			c0,6.3,0,12.7-0.2,19.2c0.1,2.4,0,4.9,0,7.4c-0.1,3-0.1,6.2,0.1,9.3c-0.4,4.5-0.4,9.1-0.3,13.5c0,2.7,0,5.6,0,8.3
			c-0.2,6.5-0.2,13.1-0.2,19.5c0,3.2,0,6.3,0,9.5c0,0.4,0,0.9,0,1.3c0,1.6-0.1,3.2,0.3,4.9c-0.6,3.6-0.6,7.2-0.6,10.7
			c0,1.3,0,2.6,0,4c0.1,2.8,0,5.6-0.1,8.4c-0.1,3.1-0.2,6.4,0,9.5c0,0.3,0,0.7-0.1,1c-0.1,1.2-0.2,2.6,0.2,4.1
			c-0.7,6.2-0.6,12.5-0.6,18.6c0,1.8,0,3.6,0,5.2c-0.2,4.6-0.3,9.3-0.4,13.9c-0.1,3.4-0.1,6.8-0.3,10.3c0,0.3,0,0.6,0,0.8
			c0,1.5-0.1,3.9,1.8,5.3c2.5,2.3,5.1,4.5,7.7,6.6c0.9,0.8,1.8,1.5,2.7,2.3c0,0.3,0,0.6,0,0.9c0,1-0.1,2.3,0.3,3.5l0,0.7l0.5,0.4
			c0.3,0.4,0.6,0.8,1.1,1.2c0.4,0.4,0.8,0.7,1.2,1.1c1.1,1.1,2.4,2.2,4.1,3l0.1,0.1c0.9,1.1,1.8,2,2.7,2.8
			c4.5,3.8,8.9,7.6,13.3,11.4c0.4,0.3,0.8,0.6,1.2,0.8l0,0.3l0.5,0c0.4,0.2,0.8,0.3,1.3,0.4l2,1.6l0-1.4c0.1,0,0.3,0,0.4,0
			c0,0,0,0,0,0l0.2,1.5l1.5-1.4l2,0.3l-0.2-1.4c0.3,0,0.5,0.1,0.8,0.1c1.8,0.1,3.7-0.1,5.5-0.5l0.3-0.1l1.1-0.1l0-1.3l0-0.3
			c0.2-2.7,0.2-5.4,0.2-8c0-1.8,0-3.6,0.1-5.5c14.1-1.9,28.2-3.7,42.3-5.6c3.3-0.4,6.6-0.9,9.8-1.3c5.6-0.8,11.3-1.6,17.1-2.1
			c0.3,0.3,0.7,0.5,1,0.8l-0.2,0.1l3.5,2.1c1.8,1.1,3.6,2.2,5.3,3.4c2.4,1.6,4.9,3.1,7.5,4.6l-0.1,1.7l2.3-0.4l1.4,0.8l0.1-1.1
			c2.9-0.6,6.1-1.1,9.3-1.4l1.6-0.1l0.1-1.6c0.3-3.9,0.4-7.8,0.4-11.7l0.2,0l-0.1-1.3c3.6-0.4,7.2-0.7,10.8-1.1l1.6-0.2l0.1-1.6
			C505.4,439.6,505.5,433.2,505.7,426.8z"/>
		<g>
			<path class="st2" d="M374.9,184.3c-0.7,8.2-0.1,16.4-0.4,24.5c-0.1,6.1-0.3,12.2-0.3,18.3c0.3,10.4-0.5,20.9-0.3,31.3
				c0.2,8.9-0.4,17.7-0.4,26.6c0.1,13.1-0.5,26.1-0.4,39.2c0.1,6.9-0.4,13.7-0.2,20.5c0.1,3.5,0,7.1-0.1,10.6
				c-0.4,15.4-0.4,30.8-0.9,46.2c-0.1,5.2-0.3,10.4,0.1,15.5c0,0.4,0.1,1.1,0.1,1.4c0.3,3.7,0.1,7.5-0.3,11.1
				c0.2,8.1-0.4,16.2,0.1,24.3c5.9-0.3,11.7-1.3,17.5-2c13-1.6,25.9-3.4,38.9-5.1c10.3-1.5,20.8-2.3,31.1-3.7
				c13.3-2,26.8-2.7,40.1-5.1c0.7-15.7,0.9-31.4,1.4-47.1c0.1-5,0.4-10,0.4-15c-0.1-11.2,0.4-22.3,0.6-33.5c0-3.7,0.2-7.4,0.5-11.1
				c-0.1-9.9,0.5-19.9,0.7-29.8c0.3-14.4,0.8-28.8,1.2-43.3c0.2-5.9,0.1-11.9,0.8-17.7c0.7-21.1,1.2-42.1,1.9-63.2
				c0-0.4,0-1.3,0-1.7c-0.2-6.3,0.3-12.5,0.2-18.8c-21.3-1.5-42.6-2.8-63.8-4.7c-22.8-1.9-45.6-3.7-68.3-5.7
				C374.7,159.2,375.2,171.8,374.9,184.3z M438.4,444.3c1.1-16.5,0.6-33.1,1.6-49.6c-0.4-14.3,0.5-28.7,0.7-43
				c0-7.1,0.2-14.2,0.3-21.3c0.2-15.6,1.2-31.2,1-46.8c0.2-21.5,1.4-43.1,1.4-64.6c0.3-8.5,0.1-16.9,0.4-25.4
				c0.4-12.1,0.6-24.1,1.1-36.2c0.1-1.2,0.1-2.4,0.1-3.7c0.4,0,1.2,0,1.6,0c15.6,1.5,31.2,2.3,46.8,3.9c4.3,0.2,8.6,0.4,12.8,0.6
				c0.2,6.7-0.4,13.3-0.4,20c-0.3,12.8-0.8,25.7-1.2,38.5c-1.5,36.7-2.2,73.4-3.3,110.2c-0.3,10.1-0.3,20.1-1,30.2
				c0.1,8.3-0.3,16.5-0.7,24.8c0.2,5.1-0.1,10.2-0.3,15.2c0.2,8.7-0.1,17.4-0.4,26.1c-0.2,4.8-0.1,9.6-0.5,14.4
				c-2.8,0.3-5.5,0.7-8.3,1c-2.7,0.3-5.5,0.6-8.2,0.8c-5.3,0.7-10.5,1.3-15.8,2c-4.1,0.5-8.1,0.9-12.2,1.4
				C448.8,443.5,443.6,444.5,438.4,444.3z M376.1,181.1c0.2-4.5,0.2-9.1,0.2-13.6c-0.2-6.6,0-13.2,0.4-19.7
				c22.3,1.9,44.6,3.9,66.9,5.7c-0.4,9.4-0.3,18.7-0.6,28.1c-0.2,9.3-0.7,18.7-0.7,28c0.3,7.4-0.3,14.7-0.2,22.1
				c0,7.4-0.3,14.7-0.5,22.1c-0.3,8.3-0.1,16.5-0.4,24.8c-0.3,12.7-0.7,25.4-1,38.1c0.1,11.7-0.4,23.5-0.6,35.2
				c-0.2,7.2-0.2,14.4-0.9,21.5c0.7,13.2-0.6,26.4-0.4,39.6c0.1,10.5-0.8,21-0.5,31.6c-14.8,1.9-29.5,3.8-44.3,5.7
				c-6.9,0.8-13.7,2.1-20.6,2.5c-0.5-11.6,0.3-23.2,0.5-34.9c0.4-8.1,0.1-16.3,0.4-24.5c-0.1-9,0.6-17.9,0.3-26.8
				c-0.2-9.4,0.5-18.8,0.4-28.2c-0.3-13.7,0.6-27.4,0.5-41c0.2-10,0.5-19.9,0.3-29.9c-0.1-7.5,0.4-15,0.3-22.6
				c-0.2-8.7,0.6-17.3,0.3-25.9c-0.3-7.6,0.4-15.2,0.3-22.8C376.1,191,376.2,186,376.1,181.1z"/>
			<g>
				<g>
					<path class="st3" d="M428.7,286.6c0.9-1.5-2.2-1.1-1,0.2C427.9,286.7,428.4,286.6,428.7,286.6z"/>
				</g>
				<g>
					<path class="st4" d="M432.5,290.7c1.9-0.2,1.9-3.5,0.1-3.9c-1.3-0.3-2.6-0.4-3.9-0.2c-0.2,0-0.7,0.1-1,0.2
						c-0.7,0.1-1.5,0.3-2.2,0.5c0.5,1.1,1,2.2,1.5,3.3c-3.3-0.4-7.3,1.1-10-1.5c-0.6-0.5-1.2-0.9-1.8-1.3c0.1,1,0.1,2,0.3,2.9
						c3,0.5,6,0.2,9,0.4C427.1,291.1,429.9,291.4,432.5,290.7z"/>
				</g>
				<g>
					<path class="st5" d="M425.5,287.2c-2.8,0.4-6.1-0.2-8.5,1.8c2.7,2.6,6.7,1.1,10,1.5C426.5,289.4,426,288.3,425.5,287.2z"/>
				</g>
				<g>
					<path class="st6" d="M429.8,300.6c-1.3-0.2-2.4,0.7-3.4,1.4c0.7,0.4,1.5,0.9,2.2,1.3c-0.1,0.1-0.4,0.3-0.5,0.4
						c-0.8-0.2-1.6-0.4-2.5-0.6c0.4,1.2,0.7,2.7,2,3.2c1,0.2,2-0.2,2.9-0.3c-0.4-0.9-0.9-1.9-1.4-2.8c0.7,0.1,1.4,0.1,2.1,0.2
						C430.9,302.4,430.5,301.4,429.8,300.6z"/>
				</g>
			</g>
			<g>
				<path class="st7" d="M376.7,147.7c-0.4,6.6-0.5,13.2-0.4,19.7c-0.1,4.5-0.1,9.1-0.2,13.6c0,4.9,0,9.9,0.1,14.8
					c0.1,7.6-0.5,15.2-0.3,22.8c0.3,8.6-0.5,17.3-0.3,25.9c0.2,7.5-0.4,15-0.3,22.6c0.2,10-0.1,19.9-0.3,29.9
					c0.2,13.7-0.8,27.4-0.5,41c0.1,9.4-0.6,18.8-0.4,28.2c0.2,9-0.5,17.9-0.3,26.8c-0.2,8.2,0.1,16.3-0.4,24.5
					c-0.2,11.6-1,23.2-0.5,34.9c6.9-0.4,13.7-1.7,20.6-2.5c14.7-2,29.5-3.9,44.3-5.7c-0.3-10.5,0.6-21,0.5-31.6
					c-0.2-13.2,1.1-26.4,0.4-39.6c0.6-7.2,0.6-14.4,0.9-21.5c0.2-11.7,0.7-23.4,0.6-35.2c0.3-12.7,0.8-25.4,1-38.1
					c0.3-8.3,0.1-16.5,0.4-24.8c0.2-7.4,0.6-14.7,0.5-22.1c-0.1-7.4,0.5-14.7,0.2-22.1c0-9.3,0.5-18.7,0.7-28
					c0.3-9.4,0.2-18.7,0.6-28.1C421.3,151.6,399,149.6,376.7,147.7z M425.7,303c0.8,0.2,1.6,0.4,2.5,0.6c0.1-0.1,0.4-0.3,0.5-0.4
					c-0.7-0.4-1.5-0.9-2.2-1.3c1.1-0.6,2.1-1.6,3.4-1.4c0.6,0.9,1.1,1.8,1.5,2.8c-0.7-0.1-1.4-0.1-2.1-0.2c0.5,0.9,0.9,1.9,1.4,2.8
					c-1,0.1-2,0.5-2.9,0.3C426.3,305.7,426.1,304.2,425.7,303z M415.2,287.7c0.6,0.4,1.2,0.9,1.8,1.3c2.4-2,5.6-1.4,8.5-1.8
					c0.7-0.2,1.4-0.3,2.2-0.5c-1.2-1.3,1.9-1.7,1-0.2c1.3-0.2,2.6-0.1,3.9,0.2c1.8,0.4,1.7,3.7-0.1,3.9c-2.6,0.7-5.3,0.4-8,0.3
					c-3-0.2-6,0.1-9-0.4C415.3,289.7,415.3,288.7,415.2,287.7z"/>
				<path class="st7" d="M441,330.5c0.2-15.6,1.2-31.2,1-46.8c0.2-21.5,1.4-43.1,1.4-64.6c0.3-8.5,0.1-16.9,0.4-25.4
					c0.4-12.1,0.6-24.1,1.1-36.2c0.1-1.2,0.1-2.4,0.1-3.7c0.4,0,1.2,0,1.6,0c15.6,1.5,31.2,2.3,46.8,3.9c4.3,0.2,8.6,0.4,12.8,0.6
					c0.2,6.7-0.4,13.3-0.4,20c-0.3,12.8-0.8,25.7-1.2,38.5c-1.5,36.7-2.2,73.4-3.3,110.2c-0.3,10.1-0.3,20.1-1,30.2
					c0.1,8.3-0.3,16.5-0.7,24.8c0.2,5.1-0.1,10.2-0.3,15.2c0.2,8.7-0.1,17.4-0.4,26.1c-0.2,4.8-0.1,9.6-0.5,14.4
					c-2.8,0.3-5.5,0.7-8.3,1c-2.7,0.3-5.5,0.6-8.2,0.8c-5.3,0.7-10.5,1.3-15.8,2c-4.1,0.5-8.1,0.9-12.2,1.4
					c-5.2,0.6-10.4,1.5-15.7,1.4c1.1-16.5,0.6-33.1,1.6-49.6c-0.4-14.3,0.5-28.7,0.7-43C440.7,344.6,440.9,337.6,441,330.5z"/>
				<path class="st7" d="M371.1,163c-0.1,31.8-0.3,63.6-1,95.4c-0.5-2.9-0.6-5.8-0.5-8.7c0-15.8,0.2-31.5,0.4-47.3
					c-0.1-5.7,0.7-11.4,0.1-17.2C370.7,177.8,370.1,170.4,371.1,163z"/>
				<path class="st7" d="M507.1,177.5c0-0.4,0-1.3,0-1.7c0.1,2,0.1,3.9,0.1,5.9c-0.5,17.5-1.1,35-1.5,52.5c-0.1,2.2-0.3,4.3-0.5,6.5
					C505.9,219.6,506.3,198.5,507.1,177.5z"/>
			</g>
			<path class="st8" d="M343.4,150.9c0,4,0,8-0.1,12c-0.2,4.4,0.3,8.9,0.2,13.3c-0.3,8.5,0.1,16.9-0.2,25.4c-0.2,5,0,10,0,15
				c-0.4,11.8,0.2,23.5-0.2,35.3c0,8.6,0,17.3-0.2,25.9c0.3,5.6-0.4,11.2,0.1,16.8c-0.7,7.3-0.2,14.6-0.4,21.9
				c-0.3,9.6-0.2,19.2-0.3,28.9c0,2-0.2,4.1,0.3,6.1c-0.9,4.8-0.5,9.8-0.6,14.7c0.2,6-0.4,12-0.1,18c-0.1,1.6-0.4,3.3,0.2,4.8
				c-0.9,8-0.6,16.1-0.6,24.1c-0.4,8-0.4,16.1-0.7,24.1c0,1.6-0.4,3.7,1.1,4.8c3.6,3.2,7.3,6.3,10.9,9.4c0.2,2-0.6,4.6,1.2,6.1
				c1.7,1.4,3.2,3.3,5.3,4c3.2,0.3,5.2,2.8,7.7,4.5c2.4,1.6,5-0.4,7.3-1.3c-0.7-0.6-1.4-1.1-2-1.7c5.7-0.8,11.3-2.2,17-2.2
				c-2.1,1-4.4,1.6-6.7,2c-0.3,3.2-0.2,6.5,0.2,9.7c0.2,1.2-0.1,2.4-0.8,3.4c2.4,0.3,4.8,0.2,7.1-0.3c0.4-5,0.1-10,0.4-15
				c14.6-1.9,29.2-3.9,43.8-5.8c9.3-1.2,18.5-2.7,27.8-3.5c1.4-0.2,2.7-0.5,4-0.7c4.1-0.3,8.2-0.8,12.3-1.3
				c4.4-0.8,8.9-1.5,13.4-1.9c4.2-0.4,8.4-0.9,12.6-1.3c0.4-13.4,0.5-26.9,1-40.3c0.7-22,1.2-44,1.5-66c0.1-1.3,0.2-2.6,0.3-3.8
				c0.7-23.7,1.4-47.3,2.1-71c0.7-33.3,1.9-66.5,2.9-99.8c0.1-4,0.4-8,0.2-11.9c-17.9-0.7-35.8-2.7-53.7-3.8c-4.7-0.2-9.4-1-14.2-1
				c-4.9-1-10-0.9-15-1.5c-9.2-0.7-18.3-1.5-27.4-2.2c-9.7-1.2-19.6-1.3-29.3-2.9c-0.6,0-1.2,0-1.8,0.1l0,0.5
				c-2.7,0.7-5.4,1.6-8,2.6C355.7,146.8,349.5,148.8,343.4,150.9z M374.9,184.3c0.4-12.6-0.2-25.1,0.4-37.7
				c22.8,2,45.6,3.8,68.3,5.7c21.2,1.9,42.5,3.2,63.8,4.7c0.1,6.3-0.5,12.5-0.2,18.8c0.1,2,0.1,3.9,0.1,5.9
				c-0.5,17.5-1.1,35-1.5,52.5c-0.1,2.2-0.3,4.3-0.5,6.5c-0.7,5.9-0.6,11.8-0.8,17.7c-0.4,14.4-0.9,28.8-1.2,43.3
				c-0.2,9.9-0.8,19.9-0.7,29.8c-0.3,3.7-0.5,7.4-0.5,11.1c-0.2,11.2-0.8,22.3-0.6,33.5c0,5-0.3,10-0.4,15
				c-0.5,15.7-0.7,31.4-1.4,47.1c-13.3,2.3-26.8,3-40.1,5.1c-10.4,1.3-20.8,2.2-31.1,3.7c-13,1.7-25.9,3.5-38.9,5.1
				c-5.8,0.7-11.6,1.7-17.5,2c-0.5-8.1,0.1-16.2-0.1-24.3c0.5-3.7,0.6-7.4,0.3-11.1c0-0.4-0.1-1.1-0.1-1.4
				c-0.4-5.2-0.2-10.4-0.1-15.5c0.5-15.4,0.5-30.8,0.9-46.2c0.1-3.5,0.2-7.1,0.1-10.6c-0.2-6.9,0.3-13.7,0.2-20.5
				c-0.2-13.1,0.5-26.1,0.4-39.2c0-8.9,0.6-17.7,0.4-26.6c-0.2-10.4,0.6-20.9,0.3-31.3c0-6.1,0.2-12.2,0.3-18.3
				C374.7,200.7,374.2,192.5,374.9,184.3z"/>
			<g>
				<g>
					<path class="st9" d="M490.7,447.2c-4.5,0.4-9,1.1-13.4,1.9c0.5,0,1.4,0.1,1.9,0.1c-4.3,2.1-8.9,3.7-13.5,5.2
						c4.6,2.8,9,5.9,13.8,8.5c0.3-4.5-0.1-9,0.3-13.5c1.3,0.1,2.5,0.2,3.8,0.2c0.1,4.2-0.1,8.5,0,12.7c0.5-4.5,0.3-9,0.7-13.4
						c2.2-0.2,4.3-0.3,6.5-0.5C490.8,448.1,490.7,447.5,490.7,447.2z"/>
				</g>
				<g>
					<path class="st7" d="M490.8,448.4c-2.2,0.1-4.3,0.3-6.5,0.5c-0.5,4.5-0.2,9-0.7,13.4c-0.2-4.2,0.1-8.5,0-12.7
						c-1.3-0.1-2.5-0.2-3.8-0.2c-0.4,4.5,0,9-0.3,13.5l0,0.4c3.6-0.7,7.3-1.4,11-1.7C490.8,457.3,490.8,452.9,490.8,448.4z"/>
				</g>
				<g>
					<path class="st10" d="M479.2,449.3c-0.5,0-1.4-0.1-1.9-0.1c-4.1,0.5-8.2,1.1-12.3,1.3c-1.3,0.2-2.7,0.5-4,0.7
						c1.5,1.2,3.1,2.3,4.8,3.3C470.3,453,474.9,451.4,479.2,449.3z"/>
				</g>
				<g>
					<path class="st7" d="M389.3,460.7c-5.7,0-11.4,1.4-17,2.2c0.7,0.6,1.3,1.1,2,1.7c0.8,0.6,1.7,1.2,2.5,1.8
						c0.2-1.1,0.4-2.1,0.6-3.2c1.2-0.2,2.4-0.4,3.6-0.6c0,4.7-0.6,9.4,0.1,14.1c0.2-0.2,0.6-0.6,0.8-0.8c0.7-1,1-2.2,0.8-3.4
						c-0.4-3.2-0.5-6.5-0.2-9.7C384.9,462.3,387.1,461.7,389.3,460.7z"/>
				</g>
				<g>
					<path class="st7" d="M367,465.9c-2.5-1.6-4.5-4.2-7.7-4.5c0.8,1.1,1.7,2.1,2.8,3c4.5,3.8,8.9,7.6,13.4,11.5
						c1.6,1.4,3.8,1,5.7,1.3l-0.1-0.4c-0.7-4.7-0.1-9.4-0.1-14.1c-1.2,0.2-2.4,0.4-3.6,0.6c-0.2,1.1-0.4,2.1-0.6,3.2
						c-0.9-0.6-1.7-1.2-2.5-1.8C372,465.5,369.4,467.4,367,465.9z"/>
				</g>
				<polygon class="st10" points="352.7,451.3 368.6,463.3 377.3,462.2 377.2,476.3 353,456.3 				"/>
				<polygon class="st7" points="389.3,460.7 377.3,462.2 377.2,476.3 389,475.5 				"/>
			</g>
		</g>
	</g>
</g>
<g id="Layer_6">
	<polygon class="st1" points="221.2,231 225.7,240.2 235.9,241.7 228.6,248.9 230.3,259 221.2,254.2 212.1,259 213.8,248.9 
		206.4,241.7 216.6,240.2 	"/>
	<polygon class="st1" points="627,231 631.5,240.2 641.7,241.7 634.4,248.9 636.1,259 627,254.2 617.9,259 619.6,248.9 612.2,241.7 
		622.4,240.2 	"/>
</g>
<g id="Layer_7">
	<path class="st11" d="M253.5,55c51.6-32.5,114-46.5,174.5-42.1c13.9,0.2,27.7,4.2,41.7,2.4c14.9-2,28.6,5.5,42.6,9.4
		c31.7,9.2,59.3,28,85.6,47.4c34.1,28.9,63.3,64.2,81.6,105.2c38.4,76.9,35,171.1-2.7,247.5c-22.2,44.2-55.8,82.1-95.7,111.4
		c-73.9,52.1-173.4,66.9-258.8,36.4c-80.9-26.7-146.8-93.7-173.3-174.5c-6.5-19-13-38.3-14.9-58.4c-3.8-36.9-2.7-74.7,7.3-110.6
		c3.9-11.9,11.5-22.1,17-33.4c-7.4,22.7-13.8,45.8-16.3,69.5c-4.1,34.2-0.6,68.9,7,102.3c8.1,39.2,27.7,75.2,51.5,107.1
		c18.2,21.7,38.6,42.6,63.5,56.7c-10.8-11.5-24.8-19.4-36-30.6c-14.5-14-25.6-31-36.9-47.6c-26.4-40-39.6-87.4-43.6-134.8
		c-1.5-27.4,1.9-54.7,6.7-81.6c4.2-22.9,15.9-43.2,23.8-64.9c-5.4,1.4-10,4.5-13.8,8.5c0.7-2.2,1.4-4.3,2.1-6.5
		c-3.3-5.2-10.4-10.9-7.1-17.7c5.2-11.4,13.5-21,20.4-31.4C198.7,96.2,226.1,74.8,253.5,55z M390.6,57.3
		c-41.4,5.1-81.6,20.5-115.2,45.3c-42.7,31.2-75.2,76.4-90.1,127.3c-15.6,51-13.4,107.2,5.6,156.9c17.8,47.5,51.1,88.8,93.2,116.8
		c32.7,22.1,71.1,35.4,110.3,39.7c43.2,4.7,87.4-3.1,126.9-21c46.3-21.1,85.4-57.2,110.7-101.3c41.2-71.2,42.5-163.3,3.4-235.6
		c-24.1-45.5-63-83-109.4-105.3C484.4,59.4,436.7,52.1,390.6,57.3z M224.7,118.3c-6.6,7.4-13.5,14.9-17.7,24
		c-8.3,10.5-14.5,22.3-22.6,33c-7.5,10-10.6,22.3-14.7,33.8c0.1-1.6,0.4-4.9,0.5-6.5c-5.9,7.9-8.5,17.5-11,26.8
		c-9.4,33.1-10.1,68.1-6.5,102.1c2.6,27.6,11.6,54,21.3,79.8c2,6.6,6.3,12.1,10,17.9c-2.5-11.6-3.3-24.1-10.5-34.1
		c-4.6-19.3-12.4-37.8-15.1-57.6c-6.2-33.3-1.1-67.1,4.5-100.1c6.6-19,12.3-38.5,22-56.3c6-12.6,14.8-23.6,20.8-36.2
		c18-21,36.8-41.8,59.5-58c13.3-10.2,28.6-17.2,42.4-26.5C275.6,72.3,247.6,93.4,224.7,118.3z M231.6,490.1
		c50.8,53.2,125.9,80,198.9,75.7c-26-3.3-52.5-3.5-77.9-10.5C308.2,543,265.1,522.5,231.6,490.1z"/>
</g>
</svg>
