<?xml version="1.0" encoding="utf-8"?>
<!-- Generator: Adobe Illustrator 22.1.0, SVG Export Plug-In . SVG Version: 6.00 Build 0)  -->
<svg version="1.1" id="Layer_1" xmlns="http://www.w3.org/2000/svg" xmlns:xlink="http://www.w3.org/1999/xlink" x="0px" y="0px"
	 viewBox="0 0 573.6 580" style="enable-background:new 0 0 573.6 580;" xml:space="preserve">
<style type="text/css">
	.st0{fill:#FFFFFF;stroke:#fffffff;stroke-width:0.25;stroke-miterlimit:10;}
	.st1{clip-path:url(#SVGID_2_);}
	.st2{fill:#fffffff;}
	.st3{clip-path:url(#SVGID_4_);fill:#fffffff;}
	.st4{clip-path:url(#SVGID_6_);fill:#fffffff;}
	.st5{clip-path:url(#SVGID_8_);fill:#fffffff;}
	.st6{clip-path:url(#SVGID_10_);fill:#fffffff;}
	.st7{clip-path:url(#SVGID_12_);fill:#fffffff;}
	.st8{clip-path:url(#SVGID_14_);fill:#fffffff;}
	.st9{clip-path:url(#SVGID_16_);fill:#fffffff;}
	.st10{clip-path:url(#SVGID_18_);fill:#fffffff;}
	.st11{clip-path:url(#SVGID_20_);fill:#fffffff;}
	.st12{clip-path:url(#SVGID_22_);fill:#fffffff;}
	.st13{clip-path:url(#SVGID_24_);fill:#fffffff;}
	.st14{clip-path:url(#SVGID_26_);fill:#fffffff;}
	.st15{clip-path:url(#SVGID_28_);fill:#fffffff;}
	.st16{clip-path:url(#SVGID_30_);fill:#fffffff;}
	.st17{clip-path:url(#SVGID_32_);fill:#fffffff;}
	.st18{clip-path:url(#SVGID_34_);fill:#fffffff;}
	.st19{clip-path:url(#SVGID_36_);fill:#fffffff;}
	.st20{clip-path:url(#SVGID_38_);fill:#fffffff;}
	.st21{clip-path:url(#SVGID_40_);}
	.st22{clip-path:url(#SVGID_42_);fill:#332F2B;}
	.st23{clip-path:url(#SVGID_44_);fill:#FFFCF7;}
	.st24{clip-path:url(#SVGID_46_);fill:#514D4A;}
	.st25{clip-path:url(#SVGID_48_);fill:#262424;}
	.st26{clip-path:url(#SVGID_50_);fill:#655F58;}
	.st27{clip-path:url(#SVGID_52_);fill:#A9A59A;}
	.st28{clip-path:url(#SVGID_54_);fill:#A9A59A;}
	.st29{clip-path:url(#SVGID_56_);fill:#A9A59A;}
	.st30{clip-path:url(#SVGID_58_);fill:#A9A59A;}
	.st31{clip-path:url(#SVGID_60_);fill:#5B5653;}
	.st32{clip-path:url(#SVGID_62_);fill:#4B433D;}
	.st33{clip-path:url(#SVGID_64_);fill:#A9A59A;}
	.st34{clip-path:url(#SVGID_66_);fill:#181412;}
	.st35{clip-path:url(#SVGID_68_);fill:#A9A59A;}
	.st36{clip-path:url(#SVGID_70_);fill:#A9A59A;}
	.st37{clip-path:url(#SVGID_72_);fill:#181412;}
	.st38{clip-path:url(#SVGID_74_);fill:#A9A59A;}
	.st39{clip-path:url(#SVGID_76_);fill:#fffffff;}
</style>
<circle class="st0" cx="286" cy="290" r="280"/>
<g>
	<g>
		<g>
			<g>
				<g>
					<defs>
						<rect id="SVGID_1_" x="-134.2" y="-9.3" width="841.9" height="595.3"/>
					</defs>
					<clipPath id="SVGID_2_">
						<use xlink:href="#SVGID_1_"  style="overflow:visible;"/>
					</clipPath>
					<g class="st1">
						<path class="st2" d="M133.2,122l-5,2.4l-2.2-2.7l8.9-7.7l5.6-4.6c6.1-5,12.8-6,17.6-0.1c3.6,4.4,3.4,8.8,0.2,13.2
							c6.1-3.1,10.9-2.2,14.2,1.7c5.6,6.9,3.6,13.4-4.4,20.1l-14,11.5l-2.4-2.9l3.4-4.4L133.2,122z M150.6,125.7
							c4.4-3.6,5.9-7.8,2.7-11.7c-2.8-3.4-6.7-3.1-9.9-0.5l-5.4,4.4l8.9,10.8L150.6,125.7z M165,140.2c4.7-3.8,5.5-7.8,2.5-11.5
							c-4-4.9-8.4-3.8-13.8,0.7l-3.7,3l9.9,12L165,140.2z"/>
						<polygon class="st2" points="194.6,121.6 196.4,125 181.1,132.8 179.4,129.5 183.6,125.9 167.8,95.4 162.5,96.8 160.9,93.7 
							172.5,87.3 207.5,109.1 193.5,82.1 188.1,83.5 186.5,80.4 201,72.5 202.8,75.9 198.6,79.5 216.7,114.4 209.6,118.1 
							174.9,96.7 188.7,123.2 						"/>
						<path class="st2" d="M263.4,88.9c1.7,8.7-3.3,14.9-12.6,16.7c-10.3,2-15.7-2.4-17.1-9.9c-1.5-7.5,6.2-13.2,6.2-13.2
							s-7.7-0.5-9.2-7.9c-1.5-7.7,3.5-12.3,12.3-14c5.5-1.1,12.3,0.2,12.3,0.2l1.4,8.8l-4,0.8l-2.3-4.7c0,0-2.7-0.4-7,0.4
							c-5,1-7,3.9-6.3,7.7c0.8,4.4,5.1,6.4,9.5,5.6l19.3-3.8l0.7,3.7l-4.7,2.2L263.4,88.9z M247.3,84.3c-4.7,0.9-8.1,5.1-7.1,9.8
							c1,5.3,4.9,7.1,10.2,6.1s7.9-4.4,6.8-9.7l-1.5-7.8L247.3,84.3z"/>
						<path class="st2" d="M293,61.4l-5.3-1.6l0.2-3.5l12.1,0.5l7,0.5c8.9,0.6,14,5.3,13.5,12.4c-0.4,6.1-3.5,10.1-9.1,11.8
							c1,1,2,2.7,3.4,6l4.3,10.4l4.4,1.3l-0.3,3.8l-9.5-0.7l-4.6-12.1c-2.5-6.5-3.8-7.9-8-8.2l-2.9-0.2l-1,14.3l5.3,1.6l-0.3,3.8
							l-17.4-1.2l0.3-3.8l5.5-0.9L293,61.4z M303.4,77.3c6.2,0.4,10-2.2,10.4-7.2c0.3-4.2-2.8-7.5-7.4-7.8l-6.7-0.5L298.6,77
							L303.4,77.3z"/>
						<path class="st2" d="M350.4,64.8l6.2,1.4l3,41.8l4.8,2.6l-1,3.7l-17.7-5l1-3.7l6,0.4l-0.4-7.4l-15.9-4.4l-4.3,6.1l5.4,2.8
							l-1,3.7l-16.9-4.8l1-3.7l5.3,0.2L350.4,64.8z M350.9,73.1l-11.6,16.6l12.6,3.5L350.9,73.1z"/>
						<polygon class="st2" points="376.8,117.6 375,121 359.9,112.9 361.7,109.5 367,111 383.2,80.7 379,77 380.6,74 392.6,79.9 
							394.4,121.1 408.7,94.3 404.5,90.6 406.1,87.5 420.8,95 419.1,98.4 413.7,97 395.2,131.7 388.2,128 386.1,87.2 372.1,113.6 
													"/>
						<path class="st2" d="M441.8,112.5l5,3.9l-15.1,39l3.2,4.4l-2.5,2.9l-13.9-12l2.5-2.9l5.3,3l2.8-6.9L416.5,133l-6.5,3.7
							l3.7,4.8l-2.5,2.9L398.1,133l2.5-2.9l4.7,2.5L441.8,112.5z M438.7,120.2l-17.5,10.1l9.9,8.6L438.7,120.2z"/>
					</g>
				</g>
			</g>
		</g>
	</g>
	<g>
		<g>
			<path class="st2" d="M99.2,358l1.5,3.7l-20.3,16.4l0.4,3.3l-2.2,0.8l-3.8-10.8l2.2-0.8l1.9,3.2l3.6-2.9l-3.4-9.7h-4.7l0.5,3.8
				l-2.2,0.8l-3.6-10.3l2.2-0.8l1.8,2.8L99.2,358z M95.1,361.2H82.5l2.7,7.7L95.1,361.2z"/>
			<polygon class="st2" points="93.7,395.4 94.8,397.8 87.9,401.2 79.6,383.9 81.7,382.9 83.9,385.6 103.2,376.3 102.4,372.9 
				104.4,372 109.3,381.7 107.1,382.7 104.9,380.1 85.7,389.3 89.2,396.6 			"/>
			<polygon class="st2" points="122,412.7 118.9,413.3 105.1,415 103.2,412.4 110.6,400.3 112.4,397.9 95.9,408.7 97.2,412.3 
				95.3,413.6 89.4,404.7 91.4,403.4 93.9,405.8 111.8,394.1 110.6,390.8 112.4,389.7 117.5,397 108.1,411.6 125.3,409.4 130,416.2 
				128,417.5 125.5,415.1 107.6,426.8 108.8,430 106.8,431.3 100.8,422.1 102.8,420.8 105.5,423.5 			"/>
		</g>
		<polygon class="st2" points="112.1,433.5 114.8,435.5 131.3,421.9 129.7,418.8 131.4,417.4 138.5,425.7 136.7,427.2 133.9,425.1 
			117.5,438.7 119,441.8 117.2,443.3 110.3,435 		"/>
	</g>
	<g>
		<g>
			<g>
				<g>
					<defs>
						<rect id="SVGID_3_" x="-134.2" y="-9.3" width="841.9" height="595.3"/>
					</defs>
					<clipPath id="SVGID_4_">
						<use xlink:href="#SVGID_3_"  style="overflow:visible;"/>
					</clipPath>
					<path class="st3" d="M139.8,432l-1.8-2.9l1.5-1.5l5.5,5.2l3.1,3.1c3.9,3.9,4.4,8.2,1.3,11.3c-2.7,2.7-5.8,3.3-9.1,1.8
						c0.1,0.8-0.2,2.1-0.8,4.2l-2.2,6.7l1.5,2.4l-1.7,1.7l-4.2-4.2l2.8-7.5c1.5-4.1,1.4-5.3-0.4-7.1l-1.3-1.3l-6.3,6.3l1.8,2.9
						l-1.7,1.7l-7.7-7.7l1.7-1.7l2.9,1.8L139.8,432z M138.2,443.7c2.7,2.7,5.6,3,7.8,0.8c1.9-1.9,1.8-4.7-0.3-6.7l-2.9-2.9l-6.7,6.7
						L138.2,443.7z"/>
				</g>
			</g>
		</g>
		<g>
			<g>
				<g>
					<defs>
						<rect id="SVGID_5_" x="-134.2" y="-9.3" width="841.9" height="595.3"/>
					</defs>
					<clipPath id="SVGID_6_">
						<use xlink:href="#SVGID_5_"  style="overflow:visible;"/>
					</clipPath>
					<path class="st4" d="M165.2,451.2l3.2,2.3l-8.1,24.8l2.1,2.6l-1.5,1.9l-9.1-7l1.5-1.9l3.4,1.7l1.5-4.4l-8.1-6.3l-3.9,2.5
						l2.5,2.9l-1.5,1.9l-8.6-6.7l1.5-1.9l3,1.4L165.2,451.2z M163.5,456l-10.6,6.9l6.4,5L163.5,456z"/>
				</g>
			</g>
		</g>
		<g>
			<g>
				<g>
					<defs>
						<rect id="SVGID_7_" x="-134.2" y="-9.3" width="841.9" height="595.3"/>
					</defs>
					<clipPath id="SVGID_8_">
						<use xlink:href="#SVGID_7_"  style="overflow:visible;"/>
					</clipPath>
					<polygon class="st5" points="164.8,482.4 168.1,483.4 178.7,464.8 176.2,462.5 177.3,460.6 187.1,466 186,468.1 182.3,466.9 
						178,474.5 189.5,481.1 193.8,473.5 190.9,471 192,469.1 201.9,474.5 200.7,476.6 197.4,475.6 186.8,494.1 189.3,496.5 
						188.1,498.5 178.3,492.9 179.5,490.8 183.2,492 187.9,483.8 176.4,477.2 171.7,485.4 174.5,488 173.4,490 163.6,484.4 					"/>
				</g>
			</g>
		</g>
		<g>
			<g>
				<g>
					<defs>
						<rect id="SVGID_9_" x="-134.2" y="-9.3" width="841.9" height="595.3"/>
					</defs>
					<clipPath id="SVGID_10_">
						<use xlink:href="#SVGID_9_"  style="overflow:visible;"/>
					</clipPath>
					<path class="st6" d="M198.9,498.8c0,0,1.3,1.6,3.6,2.6c2.7,1.1,6.1,1,7.2-1.6c2.3-5.6-11.8-8.8-8.2-17.5
						c2.1-5.1,7.1-5.6,11.7-3.7c3.5,1.4,7.1,4.7,7.1,4.7l-2.8,6.1l-2.4-1l0.4-4.4c0,0-1.6-1.4-3.6-2.3c-3.3-1.4-5.6-0.3-6.3,1.5
						c-2.3,5.5,11.7,8.9,8.3,17.1c-2.3,5.5-7.7,6.2-12.8,4c-3.8-1.6-6.9-4.6-6.9-4.6l2.6-6.4l2.9,1.2L198.9,498.8z"/>
				</g>
			</g>
		</g>
		<g>
			<g>
				<g>
					<defs>
						<rect id="SVGID_11_" x="-134.2" y="-9.3" width="841.9" height="595.3"/>
					</defs>
					<clipPath id="SVGID_12_">
						<use xlink:href="#SVGID_11_"  style="overflow:visible;"/>
					</clipPath>
					<path class="st7" d="M234.3,489.8l-3.1-1.6l0.5-2.1l7.3,1.6l4,1c5.8,1.4,8.1,5.2,6.9,10c-1.5,6-6,8.1-12.6,6.5l-2.5-0.6
						l-1.7,6.9l3.1,1.6l-0.6,2.3l-10.6-2.6l0.6-2.3h3.5L234.3,489.8z M238.2,502.1c4.2,1,6.8-0.4,7.7-3.8c0.8-3.1-0.4-5.8-3.7-6.6
						l-3.8-0.9l-2.6,10.8L238.2,502.1z"/>
				</g>
			</g>
		</g>
		<g>
			<g>
				<g>
					<defs>
						<rect id="SVGID_13_" x="-134.2" y="-9.3" width="841.9" height="595.3"/>
					</defs>
					<clipPath id="SVGID_14_">
						<use xlink:href="#SVGID_13_"  style="overflow:visible;"/>
					</clipPath>
					<path class="st8" d="M255.9,494.6l-3.2-1.2l0.3-2.2l7.5,0.7l4.3,0.5c5.5,0.7,8.5,3.8,7.9,8.2c-0.5,3.8-2.5,6.2-6.1,7
						c0.6,0.6,1.1,1.7,1.9,3.8l2.3,6.6l2.7,1l-0.3,2.4l-5.9-0.7l-2.4-7.7c-1.3-4.2-2.1-5-4.7-5.4l-1.8-0.2l-1.1,8.8l3.2,1.2
						l-0.3,2.4l-10.8-1.4l0.3-2.4l3.4-0.4L255.9,494.6z M261.8,504.9c3.8,0.5,6.3-1,6.7-4.1c0.3-2.6-1.5-4.8-4.3-5.1l-4.1-0.5
						l-1.2,9.4L261.8,504.9z"/>
				</g>
			</g>
		</g>
		<g>
			<g>
				<g>
					<defs>
						<rect id="SVGID_15_" x="-134.2" y="-9.3" width="841.9" height="595.3"/>
					</defs>
					<clipPath id="SVGID_16_">
						<use xlink:href="#SVGID_15_"  style="overflow:visible;"/>
					</clipPath>
					<polygon class="st9" points="276.6,519 280,518.4 280.7,497 277.3,496.1 277.4,494 288.3,494.1 288.2,496.5 284.8,497.2 
						284.1,518.5 287.5,519.4 287.4,521.8 276.5,521.4 					"/>
				</g>
			</g>
		</g>
		<g>
			<g>
				<g>
					<defs>
						<rect id="SVGID_17_" x="-134.2" y="-9.3" width="841.9" height="595.3"/>
					</defs>
					<clipPath id="SVGID_18_">
						<use xlink:href="#SVGID_17_"  style="overflow:visible;"/>
					</clipPath>
					<polygon class="st10" points="288.2,494.7 299.2,493.8 299.4,496.2 295.8,497.2 303.2,516 308.6,496.4 304.9,495.9 
						304.8,493.7 315.4,492.9 315.6,495.2 312.5,496.2 305.3,521.2 301.3,521.4 291.4,497.5 288.3,496.9 					"/>
				</g>
			</g>
		</g>
		<g>
			<g>
				<g>
					<defs>
						<rect id="SVGID_19_" x="-134.2" y="-9.3" width="841.9" height="595.3"/>
					</defs>
					<clipPath id="SVGID_20_">
						<use xlink:href="#SVGID_19_"  style="overflow:visible;"/>
					</clipPath>
					<path class="st11" d="M324.1,491.3l3.9-0.9l13.1,22.6l3.4,0.1l0.4,2.3l-11.3,2.1l-0.4-2.3l3.5-1.4l-2.3-4l-10.1,1.9l-0.7,4.6
						l3.8,0.1l0.4,2.3l-10.7,2l-0.4-2.3l3.1-1.3L324.1,491.3z M326.6,495.8l-1.9,12.5l8-1.5L326.6,495.8z"/>
				</g>
			</g>
		</g>
		<g>
			<g>
				<g>
					<defs>
						<rect id="SVGID_21_" x="-134.2" y="-9.3" width="841.9" height="595.3"/>
					</defs>
					<clipPath id="SVGID_22_">
						<use xlink:href="#SVGID_21_"  style="overflow:visible;"/>
					</clipPath>
					<polygon class="st12" points="349.2,511.5 352.8,509.6 346.6,489.1 341.7,490.6 341.9,494.7 339.4,495.4 337.3,488.6 
						358,482.4 360,489.2 357.6,489.9 355.5,486.4 350.6,487.9 356.7,508.4 360.8,508 361.4,510.2 349.9,513.7 					"/>
				</g>
			</g>
		</g>
		<g>
			<g>
				<g>
					<defs>
						<rect id="SVGID_23_" x="-134.2" y="-9.3" width="841.9" height="595.3"/>
					</defs>
					<clipPath id="SVGID_24_">
						<use xlink:href="#SVGID_23_"  style="overflow:visible;"/>
					</clipPath>
					<polygon class="st13" points="378.6,486.3 379.9,489.2 371.5,492.7 375.3,501.7 383.7,498.1 382.8,494.1 385.2,493.1 
						388,499.7 369.6,507.5 368.7,505.3 371.5,503.3 363.1,483.6 359.7,484.2 358.9,482.2 365.7,479.1 376.8,474.4 379.4,480.6 
						377.1,481.6 374.8,478.7 366.9,482 370.3,489.8 					"/>
				</g>
			</g>
		</g>
		<g>
			<g>
				<g>
					<defs>
						<rect id="SVGID_25_" x="-134.2" y="-9.3" width="841.9" height="595.3"/>
					</defs>
					<clipPath id="SVGID_26_">
						<use xlink:href="#SVGID_25_"  style="overflow:visible;"/>
					</clipPath>
					<polygon class="st14" points="411.2,477.6 413.5,476.2 417.6,482.7 401.2,492.8 400,490.8 402.4,488.3 391.3,470.1 388,471.2 
						386.8,469.4 396,463.5 397.2,465.5 394.8,468 406,486.1 412.9,481.9 					"/>
				</g>
			</g>
		</g>
		<g>
			<g>
				<g>
					<defs>
						<rect id="SVGID_27_" x="-134.2" y="-9.3" width="841.9" height="595.3"/>
					</defs>
					<clipPath id="SVGID_28_">
						<use xlink:href="#SVGID_27_"  style="overflow:visible;"/>
					</clipPath>
					<polygon class="st15" points="418.8,478.8 421.1,476.2 408.4,459 405.2,460.3 404,458.6 412.6,452 414,453.9 411.8,456.5 
						424.4,473.7 427.6,472.4 429,474.3 420.2,480.7 					"/>
				</g>
			</g>
		</g>
		<g>
			<g>
				<g>
					<defs>
						<rect id="SVGID_29_" x="-134.2" y="-9.3" width="841.9" height="595.3"/>
					</defs>
					<clipPath id="SVGID_30_">
						<use xlink:href="#SVGID_29_"  style="overflow:visible;"/>
					</clipPath>
					<polygon class="st16" points="435.6,438.1 436.7,441.1 440.7,454.4 438.5,456.7 425.3,451.4 422.7,450.1 436.1,464.5 
						439.4,462.6 441,464.3 433.2,471.6 431.6,469.8 433.5,467 419,451.3 416,453 414.5,451.4 420.9,445.2 436.9,452 431.7,435.4 
						437.7,429.6 439.3,431.4 437.4,434.2 451.9,449.9 454.9,448.2 456.5,449.9 448.4,457.4 446.8,455.7 449,452.6 					"/>
				</g>
			</g>
		</g>
		<g>
			<g>
				<g>
					<defs>
						<rect id="SVGID_31_" x="-134.2" y="-9.3" width="841.9" height="595.3"/>
					</defs>
					<clipPath id="SVGID_32_">
						<use xlink:href="#SVGID_31_"  style="overflow:visible;"/>
					</clipPath>
					<polygon class="st17" points="457.7,444.4 459.3,441.3 443.1,427.4 440.3,429.5 438.6,428.1 445.6,419.7 447.4,421.2 
						445.8,424.3 462,438.2 464.8,436.1 466.6,437.7 459.5,445.9 					"/>
				</g>
			</g>
		</g>
		<g>
			<g>
				<g>
					<defs>
						<rect id="SVGID_33_" x="-134.2" y="-9.3" width="841.9" height="595.3"/>
					</defs>
					<clipPath id="SVGID_34_">
						<use xlink:href="#SVGID_33_"  style="overflow:visible;"/>
					</clipPath>
					<polygon class="st18" points="469.7,429.9 471.4,426.2 454,413.8 451,418 453.7,421.1 452.2,423.2 446.4,419 458.9,401.5 
						464.7,405.7 463.2,407.7 459.4,406.2 456.4,410.4 473.8,422.9 476.7,420.1 478.7,421.5 471.6,431.3 					"/>
				</g>
			</g>
		</g>
		<g>
			<g>
				<g>
					<defs>
						<rect id="SVGID_35_" x="-134.2" y="-9.3" width="841.9" height="595.3"/>
					</defs>
					<clipPath id="SVGID_36_">
						<use xlink:href="#SVGID_35_"  style="overflow:visible;"/>
					</clipPath>
					<polygon class="st19" points="477.7,392 480.5,393.6 476,401.5 484.4,406.3 488.9,398.3 485.8,395.7 487.1,393.5 493.3,397 
						483.5,414.4 481.4,413.2 482.4,409.9 463.8,399.4 461.4,401.9 459.6,400.9 463.1,394.2 469,383.7 474.9,387 473.6,389.3 
						470,388.4 465.8,395.8 473.2,399.9 					"/>
				</g>
			</g>
		</g>
		<g>
			<g>
				<g>
					<defs>
						<rect id="SVGID_37_" x="-134.2" y="-9.3" width="841.9" height="595.3"/>
					</defs>
					<clipPath id="SVGID_38_">
						<use xlink:href="#SVGID_37_"  style="overflow:visible;"/>
					</clipPath>
					<path class="st20" d="M474.6,379.3l-2,2.8l-2-0.8l2.7-7l1.9-4.6c2.9-7.1,9.1-9.7,17.2-6.4c8,3.3,11.2,10.2,8.2,17.5l-4.5,11
						l-2.2-0.9l0.5-3.4L474.6,379.3z M497.7,379.4c1.9-4.6,0-9-6.9-11.8c-6.8-2.8-10.9-1.1-12.8,3.5l-1.8,4.4l19.8,8.1L497.7,379.4z
						"/>
				</g>
			</g>
		</g>
	</g>
	<g>
		<g>
			<g>
				<g>
					<defs>
						<rect id="SVGID_39_" x="-134.2" y="-9.3" width="841.9" height="595.3"/>
					</defs>
					<clipPath id="SVGID_40_">
						<use xlink:href="#SVGID_39_"  style="overflow:visible;"/>
					</clipPath>
					<path class="st21" d="M371.5,417.5c0.1-6.9,0.3-14.1,0.5-21.1c0.8-25.3,1.3-46.3,1.5-65.9c0.1-1.3,0.2-2.6,0.3-3.9
						c0.5-16.4,0.9-32.7,1.4-49.1l0.7-21.9c0.5-21.6,1.2-43.5,1.8-64.8c0.4-11.7,0.7-23.3,1.1-35c0-1.1,0.1-2.1,0.1-3.2
						c0.1-2.9,0.2-5.9,0.1-8.9l-0.1-1.7l-1.7-0.1c-10.3-0.4-20.7-1.3-30.8-2.1c-7.5-0.6-15.2-1.2-22.9-1.7c-1.9-0.1-3.9-0.3-5.9-0.5
						c-2.2-0.2-4.5-0.5-6.8-0.5c-0.5,0-0.9,0-1.4,0c-3-0.6-6-0.8-8.9-1c-2-0.1-4-0.3-6.1-0.5c-4.9-0.4-9.7-0.8-14.6-1.2
						c-4.3-0.4-8.6-0.7-12.8-1c-4.1-0.5-8.2-0.8-12.2-1.1c-5.6-0.4-11.4-0.9-17-1.8h-0.2l-4,0.1l0.1,0.8c-2,0.6-4.1,1.3-6.5,2.2
						l-0.6,0.2c-5.9,1.9-12,3.9-17.9,6l-1.3,0.4v1.3c0,3.5,0,7.7-0.1,11.9c-0.1,2.3,0,4.6,0.1,6.8c0.1,2.1,0.2,4.4,0.1,6.5
						c-0.2,4.5-0.1,9-0.1,13.4c0,4,0.1,8-0.1,12c-0.1,3.1-0.1,6.1-0.1,9.1c0,2,0,4,0,5.9c-0.2,5.8-0.1,11.7-0.1,17.5
						c0,5.9,0.1,11.9-0.1,17.9c0,2.2,0,4.5,0,6.7c0,6.3,0,12.7-0.2,19.2c0.1,2.4,0,4.9,0,7.4c-0.1,3-0.1,6.2,0.1,9.3
						c-0.4,4.5-0.4,9.1-0.3,13.5c0,2.7,0,5.6,0,8.3c-0.2,6.5-0.2,13.1-0.2,19.5c0,3.2,0,6.3,0,9.5c0,0.4,0,0.9,0,1.3
						c0,1.6-0.1,3.2,0.3,4.9c-0.6,3.6-0.6,7.2-0.6,10.7c0,1.3,0,2.6,0,4c0.1,2.8,0,5.6-0.1,8.4c-0.1,3.1-0.2,6.4,0,9.5
						c0,0.3,0,0.7-0.1,1c-0.1,1.2-0.2,2.6,0.2,4.1c-0.7,6.2-0.6,12.5-0.6,18.6c0,1.8,0,3.6,0,5.2c-0.2,4.6-0.3,9.3-0.4,13.9
						c-0.1,3.4-0.1,6.8-0.3,10.3c0,0.3,0,0.6,0,0.8c0,1.5-0.1,3.9,1.8,5.3c2.5,2.3,5.1,4.5,7.7,6.6c0.9,0.8,1.8,1.5,2.7,2.3
						c0,0.3,0,0.6,0,0.9c0,1-0.1,2.3,0.3,3.5v0.7l0.5,0.4c0.3,0.4,0.6,0.8,1.1,1.2c0.4,0.4,0.8,0.7,1.2,1.1c1.1,1.1,2.4,2.2,4.1,3
						l0.1,0.1c0.9,1.1,1.8,2,2.7,2.8c4.5,3.8,8.9,7.6,13.3,11.4c0.4,0.3,0.8,0.6,1.2,0.8v0.3h0.5c0.4,0.2,0.8,0.3,1.3,0.4l2,1.6
						v-1.4c0.1,0,0.3,0,0.4,0l0,0l0.2,1.5l1.5-1.4l2,0.3l-0.2-1.4c0.3,0,0.5,0.1,0.8,0.1c1.8,0.1,3.7-0.1,5.5-0.5l0.3-0.1l1.1-0.1
						v-1.3v-0.3c0.2-2.7,0.2-5.4,0.2-8c0-1.8,0-3.6,0.1-5.5c14.1-1.9,28.2-3.7,42.3-5.6c3.3-0.4,6.6-0.9,9.8-1.3
						c5.6-0.8,11.3-1.6,17.1-2.1c0.3,0.3,0.7,0.5,1,0.8l-0.2,0.1l3.5,2.1c1.8,1.1,3.6,2.2,5.3,3.4c2.4,1.6,4.9,3.1,7.5,4.6l-0.1,1.7
						l2.3-0.4l1.4,0.8l0.1-1.1c2.9-0.6,6.1-1.1,9.3-1.4l1.6-0.1l0.1-1.6c0.3-3.9,0.4-7.8,0.4-11.7h0.2l-0.1-1.3
						c3.6-0.4,7.2-0.7,10.8-1.1l1.6-0.2l0.1-1.6C371.3,430.3,371.4,423.9,371.5,417.5"/>
				</g>
			</g>
		</g>
		<g>
			<g>
				<g>
					<defs>
						<rect id="SVGID_41_" x="-134.2" y="-9.3" width="841.9" height="595.3"/>
					</defs>
					<clipPath id="SVGID_42_">
						<use xlink:href="#SVGID_41_"  style="overflow:visible;"/>
					</clipPath>
					<path class="st22" d="M240.7,175.1c-0.7,8.2-0.1,16.4-0.4,24.5c-0.1,6.1-0.3,12.2-0.3,18.3c0.3,10.4-0.5,20.9-0.3,31.3
						c0.2,8.9-0.4,17.7-0.4,26.6c0.1,13.1-0.5,26.1-0.4,39.2c0.1,6.9-0.4,13.7-0.2,20.5c0.1,3.5,0,7.1-0.1,10.6
						c-0.4,15.4-0.4,30.8-0.9,46.2c-0.1,5.2-0.3,10.4,0.1,15.5c0,0.4,0.1,1.1,0.1,1.4c0.3,3.7,0.1,7.5-0.3,11.1
						c0.2,8.1-0.4,16.2,0.1,24.3c5.9-0.3,11.7-1.3,17.5-2c13-1.6,25.9-3.4,38.9-5.1c10.3-1.5,20.8-2.3,31.1-3.7
						c13.3-2,26.8-2.7,40.1-5.1c0.7-15.7,0.9-31.4,1.4-47.1c0.1-5,0.4-10,0.4-15c-0.1-11.2,0.4-22.3,0.6-33.5
						c0-3.7,0.2-7.4,0.5-11.1c-0.1-10,0.5-19.9,0.7-29.8c0.3-14.4,0.8-28.8,1.2-43.3c0.2-5.9,0.1-11.9,0.8-17.7
						c0.7-21.1,1.2-42.1,1.9-63.2c0-0.4,0-1.3,0-1.7c-0.3-6.3,0.3-12.5,0.2-18.8c-21.3-1.6-42.6-2.8-63.8-4.7
						c-22.8-1.9-45.6-3.7-68.3-5.7C240.5,149.9,241.1,162.5,240.7,175.1 M304.2,435.1c1.1-16.5,0.6-33.1,1.6-49.6
						c-0.4-14.3,0.5-28.7,0.7-43c0-7.1,0.2-14.2,0.4-21.3c0.2-15.6,1.2-31.2,1-46.8c0.2-21.5,1.4-43.1,1.4-64.6
						c0.3-8.5,0.1-16.9,0.4-25.4c0.4-12.1,0.6-24.1,1.1-36.2c0.1-1.2,0.1-2.4,0.1-3.7c0.4,0,1.2,0,1.6,0c15.6,1.5,31.2,2.3,46.8,3.9
						c4.3,0.2,8.6,0.4,12.9,0.6c0.2,6.7-0.4,13.3-0.4,20c-0.3,12.8-0.8,25.7-1.2,38.5c-1.5,36.7-2.2,73.4-3.3,110.2
						c-0.3,10.1-0.3,20.1-1,30.2c0.1,8.3-0.3,16.5-0.7,24.8c0.2,5.1-0.1,10.2-0.3,15.2c0.2,8.7-0.1,17.4-0.4,26.1
						c-0.2,4.8-0.1,9.6-0.5,14.4c-2.8,0.3-5.5,0.7-8.3,1c-2.7,0.3-5.5,0.6-8.2,0.8c-5.3,0.7-10.5,1.3-15.8,2
						c-4.1,0.5-8.1,0.9-12.2,1.4C314.7,434.2,309.5,435.2,304.2,435.1 M242,171.8c0.2-4.5,0.2-9.1,0.3-13.6
						c-0.2-6.6,0-13.2,0.4-19.7c22.3,1.9,44.6,3.9,66.9,5.7c-0.4,9.4-0.3,18.7-0.6,28.1c-0.2,9.3-0.7,18.7-0.7,28
						c0.3,7.4-0.3,14.7-0.2,22.1c0,7.4-0.3,14.7-0.5,22.1c-0.3,8.3-0.1,16.5-0.4,24.8c-0.3,12.7-0.7,25.4-1,38.1
						c0.1,11.7-0.4,23.5-0.6,35.2c-0.2,7.2-0.2,14.4-0.9,21.5c0.7,13.2-0.6,26.4-0.4,39.6c0.1,10.5-0.8,21-0.5,31.6
						c-14.8,1.9-29.5,3.8-44.3,5.7c-6.9,0.8-13.7,2.1-20.6,2.5c-0.5-11.6,0.3-23.2,0.5-34.9c0.4-8.1,0.1-16.3,0.4-24.5
						c-0.1-9,0.6-17.9,0.3-26.8c-0.2-9.4,0.5-18.8,0.4-28.2c-0.3-13.7,0.6-27.4,0.5-41c0.2-10,0.5-19.9,0.3-29.9
						c-0.1-7.5,0.4-15,0.3-22.6c-0.2-8.7,0.6-17.3,0.3-25.9c-0.3-7.6,0.4-15.2,0.3-22.8C242,181.7,242,176.7,242,171.8"/>
				</g>
			</g>
		</g>
		<g>
			<g>
				<g>
					<defs>
						<rect id="SVGID_43_" x="-134.2" y="-9.3" width="841.9" height="595.3"/>
					</defs>
					<clipPath id="SVGID_44_">
						<use xlink:href="#SVGID_43_"  style="overflow:visible;"/>
					</clipPath>
					<path class="st23" d="M294.5,277.3c0.9-1.5-2.2-1.1-1,0.2C293.8,277.4,294.3,277.4,294.5,277.3"/>
				</g>
			</g>
		</g>
		<g>
			<g>
				<g>
					<defs>
						<rect id="SVGID_45_" x="-134.2" y="-9.3" width="841.9" height="595.3"/>
					</defs>
					<clipPath id="SVGID_46_">
						<use xlink:href="#SVGID_45_"  style="overflow:visible;"/>
					</clipPath>
					<path class="st24" d="M298.3,281.4c1.9-0.2,1.9-3.5,0.1-3.9c-1.3-0.3-2.6-0.4-3.9-0.2c-0.2,0-0.7,0.1-1,0.2
						c-0.7,0.1-1.5,0.3-2.2,0.5c0.5,1.1,1,2.2,1.5,3.3c-3.3-0.4-7.3,1.1-10-1.5c-0.6-0.5-1.2-0.9-1.8-1.3c0.1,1,0.1,2,0.3,2.9
						c3,0.5,6,0.3,9,0.4C293,281.8,295.7,282.1,298.3,281.4"/>
				</g>
			</g>
		</g>
		<g>
			<g>
				<g>
					<defs>
						<rect id="SVGID_47_" x="-134.2" y="-9.3" width="841.9" height="595.3"/>
					</defs>
					<clipPath id="SVGID_48_">
						<use xlink:href="#SVGID_47_"  style="overflow:visible;"/>
					</clipPath>
					<path class="st25" d="M291.4,277.9c-2.8,0.4-6.1-0.2-8.5,1.8c2.7,2.6,6.7,1.1,10,1.5C292.4,280.2,291.9,279,291.4,277.9"/>
				</g>
			</g>
		</g>
		<g>
			<g>
				<g>
					<defs>
						<rect id="SVGID_49_" x="-134.2" y="-9.3" width="841.9" height="595.3"/>
					</defs>
					<clipPath id="SVGID_50_">
						<use xlink:href="#SVGID_49_"  style="overflow:visible;"/>
					</clipPath>
					<path class="st26" d="M295.7,291.3c-1.3-0.2-2.4,0.7-3.4,1.4c0.7,0.4,1.5,0.9,2.2,1.3c-0.1,0.1-0.4,0.3-0.5,0.4
						c-0.8-0.2-1.6-0.4-2.5-0.6c0.4,1.2,0.7,2.7,2,3.2c1,0.2,2-0.2,2.9-0.3c-0.4-0.9-0.9-1.9-1.4-2.8c0.7,0.1,1.4,0.1,2.1,0.2
						C296.8,293.1,296.3,292.1,295.7,291.3"/>
				</g>
			</g>
		</g>
		<g>
			<g>
				<g>
					<defs>
						<rect id="SVGID_51_" x="-134.2" y="-9.3" width="841.9" height="595.3"/>
					</defs>
					<clipPath id="SVGID_52_">
						<use xlink:href="#SVGID_51_"  style="overflow:visible;"/>
					</clipPath>
					<path class="st27" d="M242.6,138.5c-0.4,6.6-0.5,13.2-0.4,19.7c-0.1,4.5-0.1,9.1-0.3,13.6c0,4.9,0,9.9,0.1,14.8
						c0.1,7.6-0.5,15.2-0.3,22.8c0.3,8.6-0.5,17.3-0.3,25.9c0.2,7.5-0.4,15-0.3,22.6c0.2,10-0.1,19.9-0.3,29.9
						c0.2,13.7-0.8,27.4-0.5,41c0.1,9.4-0.6,18.8-0.4,28.2c0.2,9-0.5,17.9-0.3,26.8c-0.2,8.1,0.1,16.3-0.4,24.5
						c-0.2,11.6-1,23.2-0.5,34.9c6.9-0.4,13.7-1.7,20.6-2.5c14.7-2,29.5-3.9,44.3-5.7c-0.3-10.5,0.6-21,0.5-31.6
						c-0.2-13.2,1.1-26.4,0.4-39.6c0.6-7.2,0.6-14.4,0.9-21.5c0.2-11.7,0.7-23.4,0.6-35.2c0.3-12.7,0.8-25.4,1-38.1
						c0.3-8.3,0.1-16.5,0.4-24.8c0.2-7.4,0.6-14.7,0.5-22.1c-0.1-7.4,0.5-14.7,0.2-22.1c0-9.3,0.5-18.7,0.7-28
						c0.3-9.4,0.2-18.7,0.6-28.1C287.1,142.3,264.9,140.3,242.6,138.5 M291.5,293.7c0.8,0.2,1.6,0.4,2.5,0.6
						c0.1-0.1,0.4-0.3,0.5-0.4c-0.7-0.4-1.5-0.9-2.2-1.3c1.1-0.6,2.1-1.6,3.4-1.4c0.6,0.9,1.1,1.8,1.5,2.8c-0.7-0.1-1.4-0.1-2.1-0.2
						c0.5,0.9,0.9,1.9,1.4,2.8c-1,0.1-2,0.5-2.9,0.3C292.2,296.4,291.9,294.9,291.5,293.7 M281.1,278.4c0.6,0.4,1.2,0.9,1.8,1.3
						c2.4-2,5.6-1.4,8.5-1.8c0.7-0.2,1.4-0.3,2.2-0.5c-1.2-1.3,1.9-1.7,1-0.2c1.3-0.2,2.6-0.1,3.9,0.2c1.8,0.4,1.7,3.7-0.1,3.9
						c-2.6,0.7-5.3,0.4-8,0.3c-3-0.2-6,0.1-9-0.4C281.2,280.4,281.2,279.4,281.1,278.4"/>
				</g>
			</g>
		</g>
		<g>
			<g>
				<g>
					<defs>
						<rect id="SVGID_53_" x="-134.2" y="-9.3" width="841.9" height="595.3"/>
					</defs>
					<clipPath id="SVGID_54_">
						<use xlink:href="#SVGID_53_"  style="overflow:visible;"/>
					</clipPath>
					<path class="st28" d="M306.9,321.2c0.2-15.6,1.2-31.2,1-46.8c0.2-21.5,1.4-43.1,1.4-64.6c0.3-8.5,0.1-16.9,0.4-25.4
						c0.4-12.1,0.6-24.1,1.1-36.2c0.1-1.2,0.1-2.4,0.1-3.7c0.4,0,1.2,0,1.6,0c15.6,1.5,31.2,2.3,46.8,3.9c4.3,0.2,8.6,0.4,12.9,0.6
						c0.2,6.7-0.4,13.3-0.4,20c-0.3,12.8-0.8,25.7-1.2,38.5c-1.5,36.7-2.2,73.4-3.3,110.2c-0.3,10.1-0.3,20.1-1,30.2
						c0.1,8.3-0.3,16.5-0.7,24.8c0.2,5.1-0.1,10.2-0.3,15.2c0.2,8.7-0.1,17.4-0.4,26.1c-0.2,4.8-0.1,9.6-0.5,14.4
						c-2.8,0.3-5.5,0.7-8.3,1c-2.7,0.3-5.5,0.6-8.2,0.8c-5.3,0.7-10.5,1.3-15.8,2c-4.1,0.5-8.1,0.9-12.2,1.4
						c-5.2,0.6-10.4,1.6-15.7,1.4c1.1-16.5,0.6-33.1,1.6-49.6c-0.4-14.3,0.5-28.7,0.7-43C306.5,335.4,306.7,328.3,306.9,321.2"/>
				</g>
			</g>
		</g>
		<g>
			<g>
				<g>
					<defs>
						<rect id="SVGID_55_" x="-134.2" y="-9.3" width="841.9" height="595.3"/>
					</defs>
					<clipPath id="SVGID_56_">
						<use xlink:href="#SVGID_55_"  style="overflow:visible;"/>
					</clipPath>
					<path class="st29" d="M237,153.7c-0.1,31.8-0.3,63.6-1,95.4c-0.5-2.9-0.6-5.8-0.5-8.7c0-15.8,0.2-31.5,0.4-47.3
						c-0.1-5.7,0.7-11.4,0.1-17.2C236.5,168.6,235.9,161.1,237,153.7"/>
				</g>
			</g>
		</g>
		<g>
			<g>
				<g>
					<defs>
						<rect id="SVGID_57_" x="-134.2" y="-9.3" width="841.9" height="595.3"/>
					</defs>
					<clipPath id="SVGID_58_">
						<use xlink:href="#SVGID_57_"  style="overflow:visible;"/>
					</clipPath>
					<path class="st30" d="M373,168.2c0-0.4,0-1.3,0-1.7c0.1,2,0.1,3.9,0.1,5.9c-0.5,17.5-1.1,35-1.5,52.5c-0.1,2.2-0.3,4.3-0.5,6.5
						C371.7,210.3,372.2,189.3,373,168.2"/>
				</g>
			</g>
		</g>
		<g>
			<g>
				<g>
					<defs>
						<rect id="SVGID_59_" x="-134.2" y="-9.3" width="841.9" height="595.3"/>
					</defs>
					<clipPath id="SVGID_60_">
						<use xlink:href="#SVGID_59_"  style="overflow:visible;"/>
					</clipPath>
					<path class="st31" d="M209.3,141.6c0,4,0,8-0.1,12c-0.2,4.4,0.3,8.9,0.2,13.3c-0.3,8.5,0.1,16.9-0.2,25.4c-0.2,5,0,10-0.1,15
						c-0.4,11.8,0.2,23.5-0.2,35.3c0,8.6,0,17.3-0.2,25.9c0.3,5.6-0.4,11.2,0.1,16.8c-0.7,7.3-0.2,14.6-0.4,21.9
						c-0.3,9.6-0.2,19.2-0.3,28.9c0,2-0.2,4.1,0.3,6.1c-0.9,4.8-0.5,9.8-0.6,14.7c0.2,6-0.4,12-0.1,18c-0.1,1.6-0.4,3.3,0.2,4.8
						c-0.9,8-0.6,16.1-0.6,24.1c-0.4,8-0.4,16.1-0.7,24.1c0,1.6-0.4,3.7,1.1,4.8c3.6,3.2,7.3,6.3,10.9,9.4c0.2,2-0.6,4.6,1.2,6.1
						c1.7,1.4,3.2,3.3,5.3,4c3.2,0.3,5.2,2.8,7.7,4.5c2.4,1.6,5-0.4,7.3-1.3c-0.7-0.6-1.4-1.1-2-1.7c5.7-0.8,11.3-2.2,17-2.2
						c-2.1,1-4.4,1.6-6.7,2c-0.3,3.2-0.2,6.5,0.2,9.7c0.2,1.2-0.1,2.4-0.8,3.4c2.4,0.3,4.8,0.2,7.1-0.3c0.4-5,0.1-10,0.4-15
						c14.6-1.9,29.2-3.9,43.8-5.8c9.3-1.2,18.5-2.7,27.8-3.5c1.4-0.2,2.7-0.5,4-0.7c4.1-0.3,8.2-0.8,12.3-1.3
						c4.4-0.8,8.9-1.5,13.4-1.9c4.2-0.4,8.4-0.9,12.6-1.3c0.4-13.4,0.5-26.9,1-40.3c0.7-22,1.2-44,1.5-66c0.1-1.3,0.2-2.6,0.3-3.8
						c0.7-23.7,1.4-47.3,2.1-71c0.7-33.3,1.9-66.5,2.9-99.8c0.1-4,0.4-8,0.2-11.9c-17.9-0.7-35.8-2.7-53.7-3.8
						c-4.7-0.2-9.4-1-14.2-1c-4.9-1-10-0.9-15-1.5c-9.2-0.7-18.3-1.5-27.4-2.2c-9.7-1.2-19.6-1.3-29.3-2.9c-0.6,0-1.2,0-1.8,0.1v0.5
						c-2.7,0.7-5.4,1.6-8,2.6C221.5,137.5,215.4,139.5,209.3,141.6 M240.7,175.1c0.4-12.6-0.2-25.1,0.4-37.7
						c22.8,2,45.6,3.8,68.3,5.7c21.2,1.9,42.5,3.2,63.8,4.7c0.1,6.3-0.5,12.5-0.2,18.8c0.1,2,0.1,3.9,0.1,5.9
						c-0.5,17.5-1.1,35-1.5,52.5c-0.1,2.2-0.3,4.3-0.5,6.5c-0.7,5.9-0.6,11.8-0.8,17.7c-0.4,14.4-0.9,28.8-1.2,43.3
						c-0.2,9.9-0.8,19.9-0.7,29.8c-0.3,3.7-0.5,7.4-0.5,11.1c-0.2,11.2-0.8,22.3-0.6,33.5c0,5-0.3,10-0.4,15
						c-0.5,15.7-0.7,31.4-1.4,47.1c-13.3,2.3-26.8,3-40.1,5.1c-10.4,1.3-20.8,2.2-31.1,3.7c-13,1.7-25.9,3.5-38.9,5.1
						c-5.8,0.7-11.6,1.7-17.5,2c-0.5-8.1,0.1-16.2-0.1-24.3c0.5-3.7,0.6-7.4,0.3-11.1c0-0.4-0.1-1.1-0.1-1.4
						c-0.4-5.2-0.2-10.4-0.1-15.5c0.5-15.4,0.5-30.8,0.9-46.2c0.1-3.5,0.2-7.1,0.1-10.6c-0.2-6.9,0.3-13.7,0.2-20.5
						c-0.2-13.1,0.5-26.1,0.4-39.2c0-8.9,0.6-17.7,0.4-26.6c-0.2-10.4,0.6-20.9,0.3-31.3c0-6.1,0.2-12.2,0.3-18.3
						C240.6,191.4,240,183.2,240.7,175.1"/>
				</g>
			</g>
		</g>
		<g>
			<g>
				<g>
					<defs>
						<rect id="SVGID_61_" x="-134.2" y="-9.3" width="841.9" height="595.3"/>
					</defs>
					<clipPath id="SVGID_62_">
						<use xlink:href="#SVGID_61_"  style="overflow:visible;"/>
					</clipPath>
					<path class="st32" d="M356.6,438c-4.5,0.4-9,1.1-13.4,1.9c0.5,0,1.4,0.1,1.9,0.1c-4.3,2.1-8.9,3.7-13.5,5.2
						c4.6,2.8,9,5.9,13.8,8.5c0.3-4.5-0.1-9,0.3-13.5c1.3,0.1,2.5,0.2,3.8,0.2c0.1,4.2-0.1,8.5,0,12.7c0.5-4.5,0.3-9,0.7-13.4
						c2.2-0.2,4.3-0.3,6.5-0.5C356.6,438.9,356.6,438.3,356.6,438"/>
				</g>
			</g>
		</g>
		<g>
			<g>
				<g>
					<defs>
						<rect id="SVGID_63_" x="-134.2" y="-9.3" width="841.9" height="595.3"/>
					</defs>
					<clipPath id="SVGID_64_">
						<use xlink:href="#SVGID_63_"  style="overflow:visible;"/>
					</clipPath>
					<path class="st33" d="M356.7,439.2c-2.2,0.1-4.3,0.3-6.5,0.5c-0.5,4.5-0.2,9-0.7,13.4c-0.2-4.2,0.1-8.5,0-12.7
						c-1.3-0.1-2.5-0.2-3.8-0.2c-0.4,4.5,0,9-0.3,13.5v0.4c3.6-0.7,7.3-1.4,10.9-1.7C356.6,448,356.6,443.6,356.7,439.2"/>
				</g>
			</g>
		</g>
		<g>
			<g>
				<g>
					<defs>
						<rect id="SVGID_65_" x="-134.2" y="-9.3" width="841.9" height="595.3"/>
					</defs>
					<clipPath id="SVGID_66_">
						<use xlink:href="#SVGID_65_"  style="overflow:visible;"/>
					</clipPath>
					<path class="st34" d="M345.1,440c-0.5,0-1.4-0.1-1.9-0.1c-4.1,0.5-8.2,1.1-12.3,1.3c-1.3,0.2-2.7,0.5-4,0.7
						c1.5,1.2,3.1,2.3,4.8,3.3C336.2,443.7,340.7,442.1,345.1,440"/>
				</g>
			</g>
		</g>
		<g>
			<g>
				<g>
					<defs>
						<rect id="SVGID_67_" x="-134.2" y="-9.3" width="841.9" height="595.3"/>
					</defs>
					<clipPath id="SVGID_68_">
						<use xlink:href="#SVGID_67_"  style="overflow:visible;"/>
					</clipPath>
					<path class="st35" d="M255.1,451.4c-5.7,0-11.4,1.4-17,2.2c0.7,0.6,1.3,1.1,2,1.7c0.8,0.6,1.7,1.2,2.5,1.8
						c0.2-1.1,0.4-2.1,0.6-3.2c1.2-0.2,2.4-0.4,3.6-0.6c0,4.7-0.6,9.4,0.1,14.1c0.2-0.2,0.6-0.6,0.9-0.8c0.7-1,1-2.2,0.8-3.4
						c-0.4-3.2-0.5-6.5-0.2-9.7C250.7,453,253,452.4,255.1,451.4"/>
				</g>
			</g>
		</g>
		<g>
			<g>
				<g>
					<defs>
						<rect id="SVGID_69_" x="-134.2" y="-9.3" width="841.9" height="595.3"/>
					</defs>
					<clipPath id="SVGID_70_">
						<use xlink:href="#SVGID_69_"  style="overflow:visible;"/>
					</clipPath>
					<path class="st36" d="M232.8,456.6c-2.5-1.6-4.5-4.2-7.7-4.5c0.8,1.1,1.7,2.1,2.8,3c4.5,3.8,8.9,7.6,13.4,11.5
						c1.6,1.4,3.8,1,5.7,1.3v-0.4c-0.7-4.7-0.1-9.4-0.1-14.1c-1.2,0.2-2.4,0.4-3.6,0.6c-0.2,1.1-0.4,2.1-0.6,3.2
						c-0.9-0.6-1.7-1.2-2.5-1.8C237.9,456.2,235.2,458.1,232.8,456.6"/>
				</g>
			</g>
		</g>
		<g>
			<g>
				<g>
					<defs>
						<rect id="SVGID_71_" x="-134.2" y="-9.3" width="841.9" height="595.3"/>
					</defs>
					<clipPath id="SVGID_72_">
						<use xlink:href="#SVGID_71_"  style="overflow:visible;"/>
					</clipPath>
					<polygon class="st37" points="218.5,442 234.4,454 243.1,452.9 243.1,467 218.9,447 					"/>
				</g>
			</g>
		</g>
		<g>
			<g>
				<g>
					<defs>
						<rect id="SVGID_73_" x="-134.2" y="-9.3" width="841.9" height="595.3"/>
					</defs>
					<clipPath id="SVGID_74_">
						<use xlink:href="#SVGID_73_"  style="overflow:visible;"/>
					</clipPath>
					<polygon class="st38" points="255.1,451.4 243.1,452.9 243.1,467 254.8,466.2 					"/>
				</g>
			</g>
		</g>
	</g>
	<polygon class="st2" points="87,221.7 91.6,230.9 101.8,232.4 94.4,239.6 96.2,249.7 87,245 77.9,249.7 79.7,239.6 72.3,232.4 
		82.5,230.9 	"/>
	<polygon class="st2" points="492.8,221.7 497.4,230.9 507.6,232.4 500.2,239.6 502,249.7 492.8,245 483.7,249.7 485.5,239.6 
		478.1,232.4 488.3,230.9 	"/>
	<g>
		<g>
			<g>
				<g>
					<defs>
						<rect id="SVGID_75_" x="-134.2" y="-9.3" width="841.9" height="595.3"/>
					</defs>
					<clipPath id="SVGID_76_">
						<use xlink:href="#SVGID_75_"  style="overflow:visible;"/>
					</clipPath>
					<path class="st39" d="M119.4,45.7C171,13.2,233.4-0.8,293.9,3.6c13.9,0.2,27.7,4.2,41.7,2.4c14.9-2,28.6,5.5,42.6,9.4
						c31.7,9.2,59.3,28,85.6,47.4C498,91.7,527.2,127,545.5,168c38.4,76.9,35,171.1-2.7,247.5c-22.2,44.2-55.8,82.1-95.7,111.4
						c-73.9,52.1-173.4,66.9-258.8,36.4C107.4,536.6,41.5,469.6,15,388.8c-6.5-19-13-38.3-14.9-58.4c-3.8-36.9-2.7-74.7,7.3-110.6
						c3.9-11.9,11.5-22.1,17-33.4C17,209.1,10.7,232.2,8.2,256c-4.1,34.2-0.6,68.9,7,102.3c8.1,39.2,27.7,75.2,51.5,107.1
						c18.2,21.7,38.6,42.6,63.5,56.7c-10.8-11.5-24.8-19.4-36-30.6c-14.5-14-25.6-31-36.9-47.6c-26.4-40-39.6-87.4-43.6-134.8
						c-1.5-27.4,1.9-54.7,6.7-81.6c4.2-22.9,15.9-43.2,23.8-64.9c-5.4,1.4-10,4.5-13.8,8.5c0.7-2.2,1.4-4.3,2.1-6.5
						c-3.3-5.2-10.4-10.9-7.1-17.7c5.2-11.4,13.5-21,20.4-31.4C64.6,86.9,91.9,65.5,119.4,45.7 M256.5,48
						c-41.4,5.1-81.6,20.5-115.2,45.3c-42.7,31.2-75.2,76.4-90.1,127.3c-15.6,51-13.4,107.2,5.6,156.9
						c17.8,47.5,51.1,88.8,93.2,116.8c32.7,22.1,71.1,35.4,110.3,39.7c43.2,4.7,87.4-3.1,126.9-21c46.3-21.1,85.4-57.2,110.7-101.3
						c41.2-71.2,42.5-163.4,3.4-235.6c-24.1-45.5-63-83-109.4-105.3C350.2,50.2,302.6,42.8,256.5,48 M90.5,109
						c-6.6,7.4-13.5,14.9-17.7,24c-8.3,10.5-14.5,22.3-22.6,33c-7.5,10-10.6,22.3-14.7,33.8c0.1-1.6,0.4-4.9,0.5-6.5
						c-5.9,7.9-8.5,17.5-11,26.8c-9.4,33.1-10.1,68.1-6.5,102.1c2.6,27.6,11.6,54,21.3,79.8c2,6.6,6.3,12.1,10,17.9
						c-2.5-11.6-3.3-24.1-10.5-34.1c-4.6-19.3-12.4-37.8-15.1-57.6c-6.2-33.3-1.1-67.1,4.5-100.1c6.6-19,12.3-38.5,22-56.3
						c6-12.6,14.8-23.6,20.8-36.2c18-21,36.8-41.8,59.5-58c13.3-10.2,28.6-17.2,42.4-26.5C141.4,63,113.4,84.1,90.5,109 M97.5,480.9
						c50.8,53.2,125.9,80,198.9,75.7c-26-3.3-52.5-3.5-77.9-10.5C174.1,533.7,131,513.2,97.5,480.9"/>
				</g>
			</g>
		</g>
	</g>
</g>
</svg>
